HIERARCHY
ROOT root
{
	OFFSET	0	13.1	24.9
	CHANNELS 6  Xposition Yposition Zposition Xrotation Yrotation Zrotation
	JOINT spine_1
	{
		OFFSET	0	9.99999	0
		CHANNELS 3  Xrotation Yrotation Zrotation
		JOINT spine_2
		{
			OFFSET	0	112	-10
			CHANNELS 3  Xrotation Yrotation Zrotation
			JOINT spine_3
			{
				OFFSET	0	206.5	19.3
				CHANNELS 3  Xrotation Yrotation Zrotation
				JOINT spine_4
				{
					OFFSET	0	110.4	14.6
					CHANNELS 3  Xrotation Yrotation Zrotation
					JOINT neck_1
					{
						OFFSET	0	71.8	-50.3
						CHANNELS 3  Xrotation Yrotation Zrotation
						JOINT neck_2
						{
							OFFSET	0	86.2	-25.8
							CHANNELS 3  Xrotation Yrotation Zrotation
							JOINT head_ee
							{
								OFFSET	0	179.8	-8.7
								CHANNELS 3  Xrotation Yrotation Zrotation
								End Site
								{
									OFFSET	1	0	0
								}
							}
						}
					}
					JOINT left_clavicle
					{
						OFFSET	-43.2	22.4	-70.8
						CHANNELS 3  Xrotation Yrotation Zrotation
						JOINT left_shoulder
						{
							OFFSET	-93.9	-5.79999	48.7
							CHANNELS 3  Xrotation Yrotation Zrotation
							JOINT left_elbow
							{
								OFFSET	-291.4	-30.8	15.2
								CHANNELS 3  Xrotation Yrotation Zrotation
								JOINT left_lowarm_twist
								{
									OFFSET	-110.7	-3.89999	13.6
									CHANNELS 3  Xrotation Yrotation Zrotation
									JOINT left_hand
									{
										OFFSET	-110.7	-3.89999	13.6
										CHANNELS 3  Xrotation Yrotation Zrotation
										JOINT left_ee
										{
											OFFSET	-80.8	-5.10001	12.1
											CHANNELS 3  Xrotation Yrotation Zrotation
											End Site
											{
												OFFSET	1	0	0
											}
										}
									}
								}
							}
						}
					}
					JOINT right_clavicle
					{
						OFFSET	43.2	22.4	-70.8
						CHANNELS 3  Xrotation Yrotation Zrotation
						JOINT right_shoulder
						{
							OFFSET	93.9	-5.79999	48.7
							CHANNELS 3  Xrotation Yrotation Zrotation
							JOINT right_elbow
							{
								OFFSET	291.4	-30.8	15.2
								CHANNELS 3  Xrotation Yrotation Zrotation
								JOINT right_lowarm_twist
								{
									OFFSET	110.7	-3.89999	13.6
									CHANNELS 3  Xrotation Yrotation Zrotation
									JOINT right_hand
									{
										OFFSET	110.7	-3.89999	13.6
										CHANNELS 3  Xrotation Yrotation Zrotation
										JOINT right_ee
										{
											OFFSET	80.8	-5.10001	12.1
											CHANNELS 3  Xrotation Yrotation Zrotation
											End Site
											{
												OFFSET	1	0	0
											}
										}
									}
								}
							}
						}
					}
				}
			}
		}
	}
	JOINT left_hip
	{
		OFFSET	-82.8	-127.5	0.300001
		CHANNELS 3  Xrotation Yrotation Zrotation
		JOINT left_knee
		{
			OFFSET	-28.2	-396.7	2.2
			CHANNELS 3  Xrotation Yrotation Zrotation
			JOINT left_ankle
			{
				OFFSET	-11.7	-411.3	35.4
				CHANNELS 3  Xrotation Yrotation Zrotation
				JOINT left_toes
				{
					OFFSET	0	-60	-88.6
					CHANNELS 3  Xrotation Yrotation Zrotation
					JOINT left_foot_ee
					{
						OFFSET	-22.5	-16.5	-42.2
						CHANNELS 3  Xrotation Yrotation Zrotation
						End Site
						{
							OFFSET	1	0	0
						}
					}
				}
			}
		}
	}
	JOINT right_hip
	{
		OFFSET	82.8	-127.5	0.300001
		CHANNELS 3  Xrotation Yrotation Zrotation
		JOINT right_knee
		{
			OFFSET	28.2	-396.7	2.2
			CHANNELS 3  Xrotation Yrotation Zrotation
			JOINT right_ankle
			{
				OFFSET	11.7	-411.3	35.4
				CHANNELS 3  Xrotation Yrotation Zrotation
				JOINT right_toes
				{
					OFFSET	0	-60	-88.6
					CHANNELS 3  Xrotation Yrotation Zrotation
					JOINT right_foot_ee
					{
						OFFSET	22.5	-16.5	-42.2
						CHANNELS 3  Xrotation Yrotation Zrotation
						End Site
						{
							OFFSET	1	0	0
						}
					}
				}
			}
		}
	}
}
MOTION
Frames: 5
Frame Time: 0.02
1048.02 668.921 -2025.56 159.613 83.0843 -147.791 -1.32847 -0.490745 -3.46508 -1.32183 -0.269396 -3.48925 -1.29962 0.549011 -3.45634 -1.31629 -0.00339599 -3.49962 4.00286 -8.4833 9.68562 5.12324 -22.9641 10.6882 -0.0 0.0 -0.0 10.8829 -23.7382 21.078 -14.4393 -29.7572 52.6182 1.86657 -42.7536 0.730683 -36.9204 -2.62976 3.83082 -4.20256 2.57475 -27.9108 -0.0 0.0 -0.0 3.33928 3.55489 -6.20777 -6.30578 -46.3732 -70.6862 0.194304 5.49807 -0.00932985 37.4825 0.224836 4.69856 2.25716 0.740778 -14.9662 0.0 0.0 0.0 -1.04621 20.2393 -26.9806 -8.06154 0.247018 1.21153 36.3663 -21.1831 -5.06035 3.90962 -0.0 -0.0 -0.0 0.0 -0.0 15.9251 -11.8623 -10.7384 5.56119 0.268621 0.81056 11.5359 -11.5215 1.63429 -20.9916 0.0 0.0 0.0 0.0 0.0 
1033.47 666.674 -2034.66 166.002 81.873 -154.407 -1.45814 -0.555733 -3.50713 -1.45136 -0.331582 -3.53533 -1.42458 0.506821 -3.51452 -1.44181 -0.054229 -3.55041 5.16426 -9.12256 10.2975 6.54808 -24.5477 11.7041 -0.0 0.0 -0.0 10.4042 -22.1694 20.1394 -15.1152 -30.1167 53.557 1.95341 -44.0536 0.790355 -38.5056 -2.79365 3.95128 -4.21923 3.82628 -27.3099 -0.0 0.0 -0.0 3.42488 6.36078 -6.18382 -2.6767 -45.1274 -68.8174 0.194344 5.49918 -0.00933361 46.2487 0.713529 5.70667 1.37887 -1.67566 -9.92165 0.0 0.0 0.0 -0.53404 11.1964 -28.0061 -17.8039 0.315314 2.703 36.1202 -18.1333 -4.91274 4.94702 -0.0 -0.0 -0.0 0.0 -0.0 17.6843 -12.3783 -9.96529 1.32737 0.0569312 0.195727 15.0614 -13.1452 2.1108 -21.7272 0.0 0.0 0.0 0.0 0.0 
1019.32 668.751 -2040.47 170.371 80.2025 -159.75 -1.44784 -0.462904 -3.4318 -1.44133 -0.243725 -3.45426 -1.42078 0.573108 -3.41514 -1.43705 0.0268947 -3.46273 6.09419 -9.89303 10.558 7.71818 -26.0367 12.2807 -0.0 0.0 -0.0 11.5495 -21.7316 22.7702 -20.6722 -31.1495 49.2742 2.0463 -45.3838 0.855721 -38.2364 -2.76559 3.93114 -4.3044 5.17728 -27.1473 -0.0 0.0 -0.0 4.02566 8.69782 -7.24932 -1.05763 -48.6746 -66.768 0.195664 5.5363 -0.00946048 45.3987 0.659436 5.61229 2.06815 -0.389082 -14.1111 0.0 0.0 0.0 -1.14857 9.41171 -26.9865 -17.6912 0.315976 2.68572 35.584 -18.8434 -4.88604 5.46825 -0.0 -0.0 -0.0 0.0 -0.0 17.2756 -13.5517 -9.10704 1.02985 0.0437757 0.15197 15.9311 -14.4749 2.23077 -23.0658 0.0 0.0 0.0 0.0 0.0 
1000.41 669.6 -2046.67 169.486 79.825 -159.093 -1.6786 -0.426272 -3.59621 -1.67142 -0.196725 -3.61601 -1.6523 0.671293 -3.55867 -1.66996 0.101228 -3.61994 5.55311 -11.4145 10.055 7.28834 -28.2113 11.5545 -0.0 0.0 -0.0 10.4429 -19.2193 20.4513 -18.2843 -32.3034 53.4347 1.84844 -42.475 0.718408 -39.5146 -2.89969 4.02558 -4.48353 2.25736 -30.2431 -0.0 0.0 -0.0 3.17162 10.4262 -5.34983 -1.84122 -47.1095 -69.6723 0.190484 5.39063 -0.0089674 41.639 0.437246 5.18574 2.56848 3.64257 -15.9477 0.0 0.0 0.0 2.94392 11.3023 -29.4631 -24.048 0.225664 3.65644 33.3602 -22.8651 -4.82173 6.69719 -0.0 -0.0 -0.0 0.0 -0.0 14.842 -12.4853 -9.40503 3.66429 0.168147 0.536994 14.8344 -10.8029 2.07425 -21.7291 0.0 0.0 0.0 0.0 0.0 
985.299 675.105 -2057.18 178.001 79.4261 -167.767 -1.44635 -0.473255 -3.60522 -1.43915 -0.243041 -3.62799 -1.41734 0.614379 -3.58389 -1.43526 0.0410487 -3.63588 5.85466 -12.1274 10.2572 7.7875 -29.5679 11.9165 -0.0 0.0 -0.0 10.6214 -18.6992 20.8872 -24.4102 -34.4415 55.2088 1.322 -33.2184 0.394353 -37.6144 -2.7011 3.88411 -4.34363 4.40479 -27.9011 -0.0 0.0 -0.0 3.6727 11.0127 -6.34642 3.19847 -44.5086 -65.6679 0.185529 5.2512 -0.00850788 42.2308 0.47035 5.25382 2.84048 3.48015 -17.9299 0.0 0.0 0.0 2.81446 7.02306 -29.0351 -25.5079 0.18975 3.87761 33.3164 -24.8691 -4.91292 7.14507 -0.0 -0.0 -0.0 0.0 -0.0 14.2378 -12.4342 -10.3208 5.52362 0.266543 0.805173 13.7324 -9.17572 1.92611 -22.1647 0.0 0.0 0.0 0.0 0.0 
